<mxfile host="Electron" modified="2023-06-05T00:54:18.262Z" agent="Mozilla/5.0 (Macintosh; Intel Mac OS X 10_15_7) AppleWebKit/537.36 (KHTML, like Gecko) draw.io/21.2.8 Chrome/112.0.5615.165 Electron/24.2.0 Safari/537.36" etag="NUMoMz2a1hevB3M7faQH" version="21.2.8" type="device" pages="2">
  <diagram name="State Machines" id="3Fu2tHPmSElFfZQrRwX7">
    <mxGraphModel dx="954" dy="1774" grid="1" gridSize="10" guides="1" tooltips="1" connect="1" arrows="1" fold="1" page="1" pageScale="1" pageWidth="850" pageHeight="1100" math="0" shadow="0">
      <root>
        <mxCell id="0" />
        <mxCell id="1" parent="0" />
        <mxCell id="o839yOLEN_f2s1I2kFfj-4" value="" style="rounded=0;whiteSpace=wrap;html=1;fillColor=none;" parent="1" vertex="1">
          <mxGeometry x="850" y="-90" width="970" height="420" as="geometry" />
        </mxCell>
        <mxCell id="Dv5pIiwYniil5ABrM-eD-3" value="" style="edgeStyle=orthogonalEdgeStyle;rounded=0;orthogonalLoop=1;jettySize=auto;html=1;" parent="1" source="Dv5pIiwYniil5ABrM-eD-1" target="Dv5pIiwYniil5ABrM-eD-2" edge="1">
          <mxGeometry relative="1" as="geometry" />
        </mxCell>
        <mxCell id="Dv5pIiwYniil5ABrM-eD-1" value="Start" style="ellipse;whiteSpace=wrap;html=1;aspect=fixed;rounded=0;" parent="1" vertex="1">
          <mxGeometry x="170" y="90" width="80" height="80" as="geometry" />
        </mxCell>
        <mxCell id="Dv5pIiwYniil5ABrM-eD-5" value="" style="edgeStyle=orthogonalEdgeStyle;rounded=0;orthogonalLoop=1;jettySize=auto;html=1;" parent="1" source="Dv5pIiwYniil5ABrM-eD-2" target="Dv5pIiwYniil5ABrM-eD-4" edge="1">
          <mxGeometry relative="1" as="geometry" />
        </mxCell>
        <mxCell id="Dv5pIiwYniil5ABrM-eD-2" value="Detection" style="ellipse;whiteSpace=wrap;html=1;aspect=fixed;rounded=0;" parent="1" vertex="1">
          <mxGeometry x="330" y="90" width="80" height="80" as="geometry" />
        </mxCell>
        <mxCell id="Dv5pIiwYniil5ABrM-eD-12" style="edgeStyle=orthogonalEdgeStyle;rounded=0;orthogonalLoop=1;jettySize=auto;html=1;exitX=0;exitY=1;exitDx=0;exitDy=0;entryX=1;entryY=1;entryDx=0;entryDy=0;" parent="1" source="Dv5pIiwYniil5ABrM-eD-4" target="Dv5pIiwYniil5ABrM-eD-2" edge="1">
          <mxGeometry relative="1" as="geometry" />
        </mxCell>
        <mxCell id="Dv5pIiwYniil5ABrM-eD-4" value="SetResult" style="ellipse;whiteSpace=wrap;html=1;aspect=fixed;rounded=0;" parent="1" vertex="1">
          <mxGeometry x="510" y="90" width="80" height="80" as="geometry" />
        </mxCell>
        <mxCell id="Dv5pIiwYniil5ABrM-eD-8" style="edgeStyle=orthogonalEdgeStyle;rounded=0;orthogonalLoop=1;jettySize=auto;html=1;exitX=1;exitY=0;exitDx=0;exitDy=0;entryX=0;entryY=0;entryDx=0;entryDy=0;" parent="1" source="Dv5pIiwYniil5ABrM-eD-2" target="Dv5pIiwYniil5ABrM-eD-2" edge="1">
          <mxGeometry relative="1" as="geometry">
            <Array as="points">
              <mxPoint x="398" y="70" />
              <mxPoint x="342" y="70" />
            </Array>
          </mxGeometry>
        </mxCell>
        <mxCell id="Dv5pIiwYniil5ABrM-eD-9" value="" style="endArrow=classic;html=1;rounded=0;entryX=0;entryY=0;entryDx=0;entryDy=0;" parent="1" target="Dv5pIiwYniil5ABrM-eD-1" edge="1">
          <mxGeometry width="50" height="50" relative="1" as="geometry">
            <mxPoint x="140" y="70" as="sourcePoint" />
            <mxPoint x="730" y="300" as="targetPoint" />
          </mxGeometry>
        </mxCell>
        <mxCell id="Dv5pIiwYniil5ABrM-eD-10" value="i &amp;lt; 50" style="text;html=1;align=center;verticalAlign=middle;resizable=0;points=[];autosize=1;strokeColor=none;fillColor=none;rounded=0;" parent="1" vertex="1">
          <mxGeometry x="345" y="38" width="50" height="30" as="geometry" />
        </mxCell>
        <mxCell id="Dv5pIiwYniil5ABrM-eD-11" value="// Read A0 &amp;amp; gather data&lt;br&gt;i++;" style="text;html=1;align=center;verticalAlign=middle;resizable=0;points=[];autosize=1;strokeColor=none;fillColor=none;rounded=0;" parent="1" vertex="1">
          <mxGeometry x="295" y="170" width="150" height="40" as="geometry" />
        </mxCell>
        <mxCell id="Dv5pIiwYniil5ABrM-eD-14" value="i &amp;gt;= 50" style="text;html=1;align=center;verticalAlign=middle;resizable=0;points=[];autosize=1;strokeColor=none;fillColor=none;rounded=0;" parent="1" vertex="1">
          <mxGeometry x="420" y="100" width="60" height="30" as="geometry" />
        </mxCell>
        <mxCell id="Dv5pIiwYniil5ABrM-eD-16" value="/ maxNoise = 0;&lt;br&gt;minNoise = 1024&#39;" style="text;html=1;align=center;verticalAlign=middle;resizable=0;points=[];autosize=1;strokeColor=none;fillColor=none;rounded=0;" parent="1" vertex="1">
          <mxGeometry x="395" y="125" width="120" height="40" as="geometry" />
        </mxCell>
        <mxCell id="Dv5pIiwYniil5ABrM-eD-19" value="A2D Processing.&lt;br&gt;if noise detected,&amp;nbsp;&lt;br&gt;isNoise = true" style="text;html=1;align=center;verticalAlign=middle;resizable=0;points=[];autosize=1;strokeColor=none;fillColor=none;rounded=0;" parent="1" vertex="1">
          <mxGeometry x="490" y="165" width="120" height="60" as="geometry" />
        </mxCell>
        <mxCell id="Dv5pIiwYniil5ABrM-eD-21" value="&lt;b&gt;&lt;u&gt;MicSM&lt;/u&gt;&lt;/b&gt;" style="text;html=1;strokeColor=none;fillColor=none;align=center;verticalAlign=middle;whiteSpace=wrap;rounded=0;" parent="1" vertex="1">
          <mxGeometry x="130" y="8" width="60" height="30" as="geometry" />
        </mxCell>
        <mxCell id="Dv5pIiwYniil5ABrM-eD-28" style="edgeStyle=orthogonalEdgeStyle;rounded=0;orthogonalLoop=1;jettySize=auto;html=1;exitX=1;exitY=0.5;exitDx=0;exitDy=0;entryX=0;entryY=0.5;entryDx=0;entryDy=0;" parent="1" source="Dv5pIiwYniil5ABrM-eD-25" target="Dv5pIiwYniil5ABrM-eD-27" edge="1">
          <mxGeometry relative="1" as="geometry" />
        </mxCell>
        <mxCell id="Dv5pIiwYniil5ABrM-eD-25" value="" style="rounded=0;whiteSpace=wrap;html=1;fillColor=none;" parent="1" vertex="1">
          <mxGeometry x="120" width="500" height="240" as="geometry" />
        </mxCell>
        <mxCell id="o839yOLEN_f2s1I2kFfj-12" style="edgeStyle=orthogonalEdgeStyle;rounded=0;orthogonalLoop=1;jettySize=auto;html=1;exitX=1;exitY=0.5;exitDx=0;exitDy=0;entryX=0;entryY=0.5;entryDx=0;entryDy=0;" parent="1" source="Dv5pIiwYniil5ABrM-eD-27" target="o839yOLEN_f2s1I2kFfj-4" edge="1">
          <mxGeometry relative="1" as="geometry" />
        </mxCell>
        <mxCell id="Dv5pIiwYniil5ABrM-eD-27" value="isNoise" style="rounded=1;whiteSpace=wrap;html=1;glass=0;" parent="1" vertex="1">
          <mxGeometry x="680" y="100" width="90" height="40" as="geometry" />
        </mxCell>
        <mxCell id="Dv5pIiwYniil5ABrM-eD-30" value="Start" style="ellipse;whiteSpace=wrap;html=1;aspect=fixed;rounded=0;" parent="1" vertex="1">
          <mxGeometry x="218" y="370" width="80" height="80" as="geometry" />
        </mxCell>
        <mxCell id="Dv5pIiwYniil5ABrM-eD-31" style="edgeStyle=orthogonalEdgeStyle;rounded=0;orthogonalLoop=1;jettySize=auto;html=1;exitX=1;exitY=0;exitDx=0;exitDy=0;entryX=0;entryY=0;entryDx=0;entryDy=0;" parent="1" source="Dv5pIiwYniil5ABrM-eD-30" target="Dv5pIiwYniil5ABrM-eD-30" edge="1">
          <mxGeometry relative="1" as="geometry">
            <Array as="points">
              <mxPoint x="286" y="350" />
              <mxPoint x="230" y="350" />
            </Array>
          </mxGeometry>
        </mxCell>
        <mxCell id="Dv5pIiwYniil5ABrM-eD-32" value="" style="endArrow=classic;html=1;rounded=0;entryX=0;entryY=0;entryDx=0;entryDy=0;" parent="1" target="Dv5pIiwYniil5ABrM-eD-30" edge="1">
          <mxGeometry width="50" height="50" relative="1" as="geometry">
            <mxPoint x="178" y="360" as="sourcePoint" />
            <mxPoint x="568" y="360" as="targetPoint" />
          </mxGeometry>
        </mxCell>
        <mxCell id="Dv5pIiwYniil5ABrM-eD-33" value="&lt;div&gt;if(Serial.available()){&lt;/div&gt;&lt;span style=&quot;white-space: pre;&quot;&gt; &lt;/span&gt;str&amp;nbsp;= Serial.readString();&lt;br&gt;&lt;span style=&quot;white-space: pre;&quot;&gt; &lt;/span&gt;if(str == &quot;-1&quot;)&lt;br&gt;&lt;span style=&quot;white-space: pre;&quot;&gt; &lt;/span&gt;&lt;span style=&quot;white-space: pre;&quot;&gt; &lt;/span&gt;data = -1;&lt;br&gt;&lt;span style=&quot;white-space: pre;&quot;&gt; &lt;/span&gt;else&lt;br&gt;&lt;span style=&quot;white-space: pre;&quot;&gt; &lt;/span&gt;&lt;span style=&quot;white-space: pre;&quot;&gt; &lt;/span&gt;data = 1;&lt;br&gt;&lt;div&gt;&lt;span style=&quot;white-space: pre;&quot;&gt; &lt;/span&gt;msgQRPi.enqueue(data);&lt;/div&gt;&lt;div&gt;&amp;nbsp;}&lt;/div&gt;" style="text;html=1;align=left;verticalAlign=middle;resizable=0;points=[];autosize=1;strokeColor=none;fillColor=none;rounded=0;" parent="1" vertex="1">
          <mxGeometry x="183" y="450" width="190" height="130" as="geometry" />
        </mxCell>
        <mxCell id="RcwFCMAtQ21KHjXICten-20" style="edgeStyle=orthogonalEdgeStyle;rounded=0;orthogonalLoop=1;jettySize=auto;html=1;exitX=1;exitY=0.5;exitDx=0;exitDy=0;" parent="1" source="Dv5pIiwYniil5ABrM-eD-34" target="RcwFCMAtQ21KHjXICten-19" edge="1">
          <mxGeometry relative="1" as="geometry" />
        </mxCell>
        <mxCell id="Dv5pIiwYniil5ABrM-eD-34" value="" style="rounded=0;whiteSpace=wrap;html=1;fillColor=none;" parent="1" vertex="1">
          <mxGeometry x="120" y="290" width="337.5" height="300" as="geometry" />
        </mxCell>
        <mxCell id="Dv5pIiwYniil5ABrM-eD-35" value="&lt;b&gt;&lt;u&gt;RPiSM&lt;/u&gt;&lt;/b&gt;" style="text;html=1;strokeColor=none;fillColor=none;align=center;verticalAlign=middle;whiteSpace=wrap;rounded=0;" parent="1" vertex="1">
          <mxGeometry x="158" y="300" width="60" height="30" as="geometry" />
        </mxCell>
        <mxCell id="Ez3Ijse_aGsHcAxn60a9-5" style="edgeStyle=orthogonalEdgeStyle;rounded=0;orthogonalLoop=1;jettySize=auto;html=1;exitX=1;exitY=0.5;exitDx=0;exitDy=0;entryX=0;entryY=0.5;entryDx=0;entryDy=0;" parent="1" source="Ez3Ijse_aGsHcAxn60a9-1" target="Ez3Ijse_aGsHcAxn60a9-4" edge="1">
          <mxGeometry relative="1" as="geometry" />
        </mxCell>
        <mxCell id="Ez3Ijse_aGsHcAxn60a9-1" value="Start" style="ellipse;whiteSpace=wrap;html=1;aspect=fixed;rounded=0;" parent="1" vertex="1">
          <mxGeometry x="197" y="740" width="80" height="80" as="geometry" />
        </mxCell>
        <mxCell id="Ez3Ijse_aGsHcAxn60a9-2" value="" style="endArrow=classic;html=1;rounded=0;entryX=0;entryY=0;entryDx=0;entryDy=0;" parent="1" target="Ez3Ijse_aGsHcAxn60a9-1" edge="1">
          <mxGeometry width="50" height="50" relative="1" as="geometry">
            <mxPoint x="157" y="730" as="sourcePoint" />
            <mxPoint x="457" y="700" as="targetPoint" />
          </mxGeometry>
        </mxCell>
        <mxCell id="Ez3Ijse_aGsHcAxn60a9-12" value="" style="edgeStyle=orthogonalEdgeStyle;rounded=0;orthogonalLoop=1;jettySize=auto;html=1;" parent="1" source="Ez3Ijse_aGsHcAxn60a9-4" target="Ez3Ijse_aGsHcAxn60a9-11" edge="1">
          <mxGeometry relative="1" as="geometry" />
        </mxCell>
        <mxCell id="Ez3Ijse_aGsHcAxn60a9-4" value="Detection" style="ellipse;whiteSpace=wrap;html=1;aspect=fixed;rounded=0;" parent="1" vertex="1">
          <mxGeometry x="367" y="740" width="80" height="80" as="geometry" />
        </mxCell>
        <mxCell id="Ez3Ijse_aGsHcAxn60a9-13" style="edgeStyle=orthogonalEdgeStyle;rounded=0;orthogonalLoop=1;jettySize=auto;html=1;exitX=0;exitY=1;exitDx=0;exitDy=0;entryX=1;entryY=1;entryDx=0;entryDy=0;" parent="1" source="Ez3Ijse_aGsHcAxn60a9-11" target="Ez3Ijse_aGsHcAxn60a9-4" edge="1">
          <mxGeometry relative="1" as="geometry" />
        </mxCell>
        <mxCell id="Ez3Ijse_aGsHcAxn60a9-11" value="SetResult" style="ellipse;whiteSpace=wrap;html=1;aspect=fixed;rounded=0;" parent="1" vertex="1">
          <mxGeometry x="628" y="740" width="80" height="80" as="geometry" />
        </mxCell>
        <mxCell id="Ez3Ijse_aGsHcAxn60a9-14" style="edgeStyle=orthogonalEdgeStyle;rounded=0;orthogonalLoop=1;jettySize=auto;html=1;exitX=1;exitY=0;exitDx=0;exitDy=0;entryX=0;entryY=0;entryDx=0;entryDy=0;" parent="1" source="Ez3Ijse_aGsHcAxn60a9-4" target="Ez3Ijse_aGsHcAxn60a9-4" edge="1">
          <mxGeometry relative="1" as="geometry">
            <Array as="points">
              <mxPoint x="435" y="720" />
              <mxPoint x="379" y="720" />
            </Array>
          </mxGeometry>
        </mxCell>
        <mxCell id="Ez3Ijse_aGsHcAxn60a9-15" value="digitalRead(10) == LOW" style="text;html=1;align=center;verticalAlign=middle;resizable=0;points=[];autosize=1;strokeColor=none;fillColor=none;rounded=0;" parent="1" vertex="1">
          <mxGeometry x="323" y="688" width="150" height="30" as="geometry" />
        </mxCell>
        <mxCell id="Ez3Ijse_aGsHcAxn60a9-16" value="digitalRead(10) == HIGH&lt;br&gt;/ isMotion = true;" style="text;html=1;align=center;verticalAlign=middle;resizable=0;points=[];autosize=1;strokeColor=none;fillColor=none;rounded=0;" parent="1" vertex="1">
          <mxGeometry x="453" y="735" width="160" height="40" as="geometry" />
        </mxCell>
        <mxCell id="Ez3Ijse_aGsHcAxn60a9-17" value="digitalRead(10) == LOW&lt;br&gt;/ isMotion = false" style="text;html=1;align=center;verticalAlign=middle;resizable=0;points=[];autosize=1;strokeColor=none;fillColor=none;rounded=0;" parent="1" vertex="1">
          <mxGeometry x="464" y="805" width="150" height="40" as="geometry" />
        </mxCell>
        <mxCell id="Ez3Ijse_aGsHcAxn60a9-18" style="edgeStyle=orthogonalEdgeStyle;rounded=0;orthogonalLoop=1;jettySize=auto;html=1;exitX=1;exitY=0;exitDx=0;exitDy=0;entryX=0;entryY=0;entryDx=0;entryDy=0;" parent="1" source="Ez3Ijse_aGsHcAxn60a9-11" target="Ez3Ijse_aGsHcAxn60a9-11" edge="1">
          <mxGeometry relative="1" as="geometry">
            <Array as="points">
              <mxPoint x="696" y="720" />
              <mxPoint x="640" y="720" />
            </Array>
          </mxGeometry>
        </mxCell>
        <mxCell id="Ez3Ijse_aGsHcAxn60a9-19" value="digitalRead(10) == HIGH" style="text;html=1;align=center;verticalAlign=middle;resizable=0;points=[];autosize=1;strokeColor=none;fillColor=none;rounded=0;" parent="1" vertex="1">
          <mxGeometry x="588" y="688" width="160" height="30" as="geometry" />
        </mxCell>
        <mxCell id="Ez3Ijse_aGsHcAxn60a9-24" style="edgeStyle=orthogonalEdgeStyle;rounded=0;orthogonalLoop=1;jettySize=auto;html=1;" parent="1" source="Ez3Ijse_aGsHcAxn60a9-20" target="Ez3Ijse_aGsHcAxn60a9-23" edge="1">
          <mxGeometry relative="1" as="geometry" />
        </mxCell>
        <mxCell id="Ez3Ijse_aGsHcAxn60a9-20" value="" style="rounded=0;whiteSpace=wrap;html=1;fillColor=none;" parent="1" vertex="1">
          <mxGeometry x="123" y="640" width="640" height="240" as="geometry" />
        </mxCell>
        <mxCell id="Ez3Ijse_aGsHcAxn60a9-21" value="&lt;b&gt;&lt;u&gt;MotionSM&lt;/u&gt;&lt;/b&gt;" style="text;html=1;strokeColor=none;fillColor=none;align=center;verticalAlign=middle;whiteSpace=wrap;rounded=0;" parent="1" vertex="1">
          <mxGeometry x="148" y="650" width="60" height="30" as="geometry" />
        </mxCell>
        <mxCell id="RcwFCMAtQ21KHjXICten-48" style="edgeStyle=orthogonalEdgeStyle;rounded=0;orthogonalLoop=1;jettySize=auto;html=1;entryX=0;entryY=0.5;entryDx=0;entryDy=0;" parent="1" source="Ez3Ijse_aGsHcAxn60a9-23" target="RcwFCMAtQ21KHjXICten-46" edge="1">
          <mxGeometry relative="1" as="geometry" />
        </mxCell>
        <mxCell id="Ez3Ijse_aGsHcAxn60a9-23" value="isMotion" style="rounded=1;whiteSpace=wrap;html=1;" parent="1" vertex="1">
          <mxGeometry x="833" y="740" width="87" height="40" as="geometry" />
        </mxCell>
        <mxCell id="Ez3Ijse_aGsHcAxn60a9-28" value="" style="edgeStyle=orthogonalEdgeStyle;rounded=0;orthogonalLoop=1;jettySize=auto;html=1;" parent="1" source="Ez3Ijse_aGsHcAxn60a9-25" target="Ez3Ijse_aGsHcAxn60a9-27" edge="1">
          <mxGeometry relative="1" as="geometry" />
        </mxCell>
        <mxCell id="Ez3Ijse_aGsHcAxn60a9-31" style="edgeStyle=orthogonalEdgeStyle;rounded=0;orthogonalLoop=1;jettySize=auto;html=1;exitX=0.5;exitY=1;exitDx=0;exitDy=0;entryX=0.5;entryY=1;entryDx=0;entryDy=0;" parent="1" source="Ez3Ijse_aGsHcAxn60a9-25" target="Ez3Ijse_aGsHcAxn60a9-29" edge="1">
          <mxGeometry relative="1" as="geometry">
            <Array as="points">
              <mxPoint x="235" y="1310" />
              <mxPoint x="791" y="1310" />
            </Array>
          </mxGeometry>
        </mxCell>
        <mxCell id="Ez3Ijse_aGsHcAxn60a9-25" value="Start" style="ellipse;whiteSpace=wrap;html=1;aspect=fixed;rounded=0;" parent="1" vertex="1">
          <mxGeometry x="195" y="1130" width="80" height="80" as="geometry" />
        </mxCell>
        <mxCell id="Ez3Ijse_aGsHcAxn60a9-26" value="" style="endArrow=classic;html=1;rounded=0;entryX=0;entryY=0;entryDx=0;entryDy=0;" parent="1" target="Ez3Ijse_aGsHcAxn60a9-25" edge="1">
          <mxGeometry width="50" height="50" relative="1" as="geometry">
            <mxPoint x="156" y="1100" as="sourcePoint" />
            <mxPoint x="776" y="920" as="targetPoint" />
          </mxGeometry>
        </mxCell>
        <mxCell id="Ez3Ijse_aGsHcAxn60a9-30" value="" style="edgeStyle=orthogonalEdgeStyle;rounded=0;orthogonalLoop=1;jettySize=auto;html=1;" parent="1" source="Ez3Ijse_aGsHcAxn60a9-27" target="Ez3Ijse_aGsHcAxn60a9-29" edge="1">
          <mxGeometry relative="1" as="geometry" />
        </mxCell>
        <mxCell id="Ez3Ijse_aGsHcAxn60a9-39" style="edgeStyle=orthogonalEdgeStyle;rounded=0;orthogonalLoop=1;jettySize=auto;html=1;exitX=0;exitY=1;exitDx=0;exitDy=0;entryX=1;entryY=1;entryDx=0;entryDy=0;" parent="1" source="Ez3Ijse_aGsHcAxn60a9-27" target="Ez3Ijse_aGsHcAxn60a9-25" edge="1">
          <mxGeometry relative="1" as="geometry" />
        </mxCell>
        <mxCell id="Ez3Ijse_aGsHcAxn60a9-27" value="BB1" style="ellipse;whiteSpace=wrap;html=1;aspect=fixed;rounded=0;" parent="1" vertex="1">
          <mxGeometry x="476" y="1130" width="80" height="80" as="geometry" />
        </mxCell>
        <mxCell id="Ez3Ijse_aGsHcAxn60a9-32" style="edgeStyle=orthogonalEdgeStyle;rounded=0;orthogonalLoop=1;jettySize=auto;html=1;exitX=0;exitY=1;exitDx=0;exitDy=0;entryX=1;entryY=1;entryDx=0;entryDy=0;" parent="1" source="Ez3Ijse_aGsHcAxn60a9-29" target="Ez3Ijse_aGsHcAxn60a9-27" edge="1">
          <mxGeometry relative="1" as="geometry" />
        </mxCell>
        <mxCell id="Ez3Ijse_aGsHcAxn60a9-34" style="edgeStyle=orthogonalEdgeStyle;rounded=0;orthogonalLoop=1;jettySize=auto;html=1;exitX=0.5;exitY=0;exitDx=0;exitDy=0;entryX=0.5;entryY=0;entryDx=0;entryDy=0;" parent="1" source="Ez3Ijse_aGsHcAxn60a9-29" target="Ez3Ijse_aGsHcAxn60a9-25" edge="1">
          <mxGeometry relative="1" as="geometry">
            <Array as="points">
              <mxPoint x="791" y="1030" />
              <mxPoint x="235" y="1030" />
            </Array>
          </mxGeometry>
        </mxCell>
        <mxCell id="Ez3Ijse_aGsHcAxn60a9-29" value="BB2" style="ellipse;whiteSpace=wrap;html=1;aspect=fixed;rounded=0;" parent="1" vertex="1">
          <mxGeometry x="751" y="1130" width="80" height="80" as="geometry" />
        </mxCell>
        <mxCell id="Ez3Ijse_aGsHcAxn60a9-38" style="edgeStyle=orthogonalEdgeStyle;rounded=0;orthogonalLoop=1;jettySize=auto;html=1;exitX=0;exitY=1;exitDx=0;exitDy=0;entryX=0;entryY=0;entryDx=0;entryDy=0;" parent="1" source="Ez3Ijse_aGsHcAxn60a9-25" target="Ez3Ijse_aGsHcAxn60a9-25" edge="1">
          <mxGeometry relative="1" as="geometry">
            <Array as="points">
              <mxPoint x="176" y="1198" />
              <mxPoint x="136" y="1198" />
              <mxPoint x="136" y="1142" />
              <mxPoint x="186" y="1142" />
            </Array>
          </mxGeometry>
        </mxCell>
        <mxCell id="Ez3Ijse_aGsHcAxn60a9-40" style="edgeStyle=orthogonalEdgeStyle;rounded=0;orthogonalLoop=1;jettySize=auto;html=1;exitX=1;exitY=0;exitDx=0;exitDy=0;entryX=0;entryY=0;entryDx=0;entryDy=0;" parent="1" source="Ez3Ijse_aGsHcAxn60a9-27" target="Ez3Ijse_aGsHcAxn60a9-27" edge="1">
          <mxGeometry relative="1" as="geometry">
            <Array as="points">
              <mxPoint x="544" y="1110" />
              <mxPoint x="488" y="1110" />
            </Array>
          </mxGeometry>
        </mxCell>
        <mxCell id="Ez3Ijse_aGsHcAxn60a9-41" style="edgeStyle=orthogonalEdgeStyle;rounded=0;orthogonalLoop=1;jettySize=auto;html=1;exitX=1;exitY=1;exitDx=0;exitDy=0;entryX=1;entryY=0;entryDx=0;entryDy=0;" parent="1" source="Ez3Ijse_aGsHcAxn60a9-29" target="Ez3Ijse_aGsHcAxn60a9-29" edge="1">
          <mxGeometry relative="1" as="geometry">
            <Array as="points">
              <mxPoint x="891" y="1198" />
              <mxPoint x="891" y="1142" />
            </Array>
          </mxGeometry>
        </mxCell>
        <mxCell id="RcwFCMAtQ21KHjXICten-4" value="analogRead(11) == HIGH&lt;br&gt;&amp;amp;&amp;amp; analogRead(12) == LOW" style="text;html=1;align=center;verticalAlign=middle;resizable=0;points=[];autosize=1;strokeColor=none;fillColor=none;rounded=0;" parent="1" vertex="1">
          <mxGeometry x="443" y="1320" width="180" height="40" as="geometry" />
        </mxCell>
        <mxCell id="RcwFCMAtQ21KHjXICten-5" value="analogRead(11) == LOW&lt;br&gt;&amp;amp;&amp;amp; analogRead(12) == HIGH&lt;br&gt;/ msgQ.enqueue(1);" style="text;html=1;align=center;verticalAlign=middle;resizable=0;points=[];autosize=1;strokeColor=none;fillColor=none;rounded=0;" parent="1" vertex="1">
          <mxGeometry x="568" y="1198" width="180" height="60" as="geometry" />
        </mxCell>
        <mxCell id="RcwFCMAtQ21KHjXICten-6" value="analogRead(11) == HIGH&lt;br&gt;&amp;amp;&amp;amp; analogRead(12) == LOW" style="text;html=1;align=center;verticalAlign=middle;resizable=0;points=[];autosize=1;strokeColor=none;fillColor=none;rounded=0;" parent="1" vertex="1">
          <mxGeometry x="820" y="1100" width="180" height="40" as="geometry" />
        </mxCell>
        <mxCell id="RcwFCMAtQ21KHjXICten-7" value="analogRead(11) == LOW&lt;br&gt;&amp;amp;&amp;amp; analogRead(12) == HIGH" style="text;html=1;align=center;verticalAlign=middle;resizable=0;points=[];autosize=1;strokeColor=none;fillColor=none;rounded=0;" parent="1" vertex="1">
          <mxGeometry x="440" y="1070" width="180" height="40" as="geometry" />
        </mxCell>
        <mxCell id="RcwFCMAtQ21KHjXICten-8" value="Other" style="text;html=1;align=center;verticalAlign=middle;resizable=0;points=[];autosize=1;strokeColor=none;fillColor=none;rounded=0;" parent="1" vertex="1">
          <mxGeometry x="346" y="1198" width="50" height="30" as="geometry" />
        </mxCell>
        <mxCell id="RcwFCMAtQ21KHjXICten-9" value="Other" style="text;html=1;align=center;verticalAlign=middle;resizable=0;points=[];autosize=1;strokeColor=none;fillColor=none;rounded=0;" parent="1" vertex="1">
          <mxGeometry x="486" y="1008" width="50" height="30" as="geometry" />
        </mxCell>
        <mxCell id="RcwFCMAtQ21KHjXICten-10" value="analogRead(11) == LOW&lt;br&gt;&amp;amp;&amp;amp; analogRead(12) == HIGH" style="text;html=1;align=center;verticalAlign=middle;resizable=0;points=[];autosize=1;strokeColor=none;fillColor=none;rounded=0;" parent="1" vertex="1">
          <mxGeometry x="293" y="1126" width="180" height="40" as="geometry" />
        </mxCell>
        <mxCell id="RcwFCMAtQ21KHjXICten-11" value="Other" style="text;html=1;align=center;verticalAlign=middle;resizable=0;points=[];autosize=1;strokeColor=none;fillColor=none;rounded=0;" parent="1" vertex="1">
          <mxGeometry x="151" y="1198" width="50" height="30" as="geometry" />
        </mxCell>
        <mxCell id="RcwFCMAtQ21KHjXICten-12" value="analogRead(11) == HIGH&lt;br&gt;&amp;amp;&amp;amp; analogRead(12) == LOW&lt;br&gt;/ msgQ.enqueue(-1);" style="text;html=1;align=center;verticalAlign=middle;resizable=0;points=[];autosize=1;strokeColor=none;fillColor=none;rounded=0;" parent="1" vertex="1">
          <mxGeometry x="560" y="1110" width="180" height="60" as="geometry" />
        </mxCell>
        <mxCell id="RcwFCMAtQ21KHjXICten-13" value="&lt;b&gt;&lt;u&gt;BBSM&lt;/u&gt;&lt;/b&gt;" style="text;html=1;align=center;verticalAlign=middle;resizable=0;points=[];autosize=1;strokeColor=none;fillColor=none;rounded=0;" parent="1" vertex="1">
          <mxGeometry x="140" y="970" width="60" height="30" as="geometry" />
        </mxCell>
        <mxCell id="RcwFCMAtQ21KHjXICten-18" style="edgeStyle=orthogonalEdgeStyle;rounded=0;orthogonalLoop=1;jettySize=auto;html=1;entryX=0;entryY=0.5;entryDx=0;entryDy=0;" parent="1" source="RcwFCMAtQ21KHjXICten-14" target="RcwFCMAtQ21KHjXICten-17" edge="1">
          <mxGeometry relative="1" as="geometry" />
        </mxCell>
        <mxCell id="RcwFCMAtQ21KHjXICten-14" value="" style="rounded=0;whiteSpace=wrap;html=1;fillColor=none;" parent="1" vertex="1">
          <mxGeometry x="123" y="960" width="890" height="400" as="geometry" />
        </mxCell>
        <mxCell id="o839yOLEN_f2s1I2kFfj-14" style="edgeStyle=orthogonalEdgeStyle;rounded=0;orthogonalLoop=1;jettySize=auto;html=1;exitX=1;exitY=0.5;exitDx=0;exitDy=0;entryX=0;entryY=0.75;entryDx=0;entryDy=0;" parent="1" source="RcwFCMAtQ21KHjXICten-17" target="o839yOLEN_f2s1I2kFfj-6" edge="1">
          <mxGeometry relative="1" as="geometry" />
        </mxCell>
        <mxCell id="RcwFCMAtQ21KHjXICten-17" value="msgQ" style="rounded=1;whiteSpace=wrap;html=1;" parent="1" vertex="1">
          <mxGeometry x="1128" y="1140" width="80" height="40" as="geometry" />
        </mxCell>
        <mxCell id="o839yOLEN_f2s1I2kFfj-13" style="edgeStyle=orthogonalEdgeStyle;rounded=0;orthogonalLoop=1;jettySize=auto;html=1;exitX=1;exitY=0.5;exitDx=0;exitDy=0;entryX=0;entryY=0.25;entryDx=0;entryDy=0;" parent="1" source="RcwFCMAtQ21KHjXICten-19" target="o839yOLEN_f2s1I2kFfj-6" edge="1">
          <mxGeometry relative="1" as="geometry" />
        </mxCell>
        <mxCell id="RcwFCMAtQ21KHjXICten-19" value="msgQRPi" style="rounded=1;whiteSpace=wrap;html=1;" parent="1" vertex="1">
          <mxGeometry x="583" y="420" width="80" height="40" as="geometry" />
        </mxCell>
        <mxCell id="RcwFCMAtQ21KHjXICten-30" value="" style="edgeStyle=orthogonalEdgeStyle;rounded=0;orthogonalLoop=1;jettySize=auto;html=1;" parent="1" source="RcwFCMAtQ21KHjXICten-28" target="RcwFCMAtQ21KHjXICten-29" edge="1">
          <mxGeometry relative="1" as="geometry" />
        </mxCell>
        <mxCell id="RcwFCMAtQ21KHjXICten-65" style="edgeStyle=orthogonalEdgeStyle;rounded=0;orthogonalLoop=1;jettySize=auto;html=1;exitX=0.5;exitY=1;exitDx=0;exitDy=0;entryX=0;entryY=1;entryDx=0;entryDy=0;" parent="1" source="RcwFCMAtQ21KHjXICten-28" target="RcwFCMAtQ21KHjXICten-32" edge="1">
          <mxGeometry relative="1" as="geometry">
            <Array as="points">
              <mxPoint x="943" y="165" />
              <mxPoint x="1552" y="165" />
            </Array>
          </mxGeometry>
        </mxCell>
        <mxCell id="RcwFCMAtQ21KHjXICten-28" value="Start" style="ellipse;whiteSpace=wrap;html=1;aspect=fixed;rounded=0;" parent="1" vertex="1">
          <mxGeometry x="903" y="45" width="80" height="80" as="geometry" />
        </mxCell>
        <mxCell id="RcwFCMAtQ21KHjXICten-31" style="edgeStyle=orthogonalEdgeStyle;rounded=0;orthogonalLoop=1;jettySize=auto;html=1;exitX=0;exitY=1;exitDx=0;exitDy=0;entryX=1;entryY=1;entryDx=0;entryDy=0;" parent="1" source="RcwFCMAtQ21KHjXICten-29" target="RcwFCMAtQ21KHjXICten-28" edge="1">
          <mxGeometry relative="1" as="geometry">
            <mxPoint x="1022" y="135" as="targetPoint" />
          </mxGeometry>
        </mxCell>
        <mxCell id="RcwFCMAtQ21KHjXICten-33" value="" style="edgeStyle=orthogonalEdgeStyle;rounded=0;orthogonalLoop=1;jettySize=auto;html=1;" parent="1" source="RcwFCMAtQ21KHjXICten-29" target="RcwFCMAtQ21KHjXICten-32" edge="1">
          <mxGeometry relative="1" as="geometry" />
        </mxCell>
        <mxCell id="RcwFCMAtQ21KHjXICten-29" value="Wait" style="ellipse;whiteSpace=wrap;html=1;aspect=fixed;rounded=0;" parent="1" vertex="1">
          <mxGeometry x="1290" y="45" width="80" height="80" as="geometry" />
        </mxCell>
        <mxCell id="RcwFCMAtQ21KHjXICten-36" style="edgeStyle=orthogonalEdgeStyle;rounded=0;orthogonalLoop=1;jettySize=auto;html=1;exitX=0.5;exitY=1;exitDx=0;exitDy=0;entryX=0;entryY=1;entryDx=0;entryDy=0;" parent="1" source="RcwFCMAtQ21KHjXICten-32" target="RcwFCMAtQ21KHjXICten-28" edge="1">
          <mxGeometry relative="1" as="geometry">
            <Array as="points">
              <mxPoint x="1580" y="245" />
              <mxPoint x="915" y="245" />
            </Array>
          </mxGeometry>
        </mxCell>
        <mxCell id="RcwFCMAtQ21KHjXICten-32" value="Sound" style="ellipse;whiteSpace=wrap;html=1;aspect=fixed;rounded=0;" parent="1" vertex="1">
          <mxGeometry x="1540" y="45" width="80" height="80" as="geometry" />
        </mxCell>
        <mxCell id="RcwFCMAtQ21KHjXICten-34" style="edgeStyle=orthogonalEdgeStyle;rounded=0;orthogonalLoop=1;jettySize=auto;html=1;exitX=1;exitY=0;exitDx=0;exitDy=0;entryX=0;entryY=0;entryDx=0;entryDy=0;" parent="1" source="RcwFCMAtQ21KHjXICten-29" target="RcwFCMAtQ21KHjXICten-29" edge="1">
          <mxGeometry relative="1" as="geometry">
            <Array as="points">
              <mxPoint x="1341" y="25" />
              <mxPoint x="1285" y="25" />
            </Array>
          </mxGeometry>
        </mxCell>
        <mxCell id="RcwFCMAtQ21KHjXICten-35" style="edgeStyle=orthogonalEdgeStyle;rounded=0;orthogonalLoop=1;jettySize=auto;html=1;exitX=1;exitY=0;exitDx=0;exitDy=0;entryX=0;entryY=0;entryDx=0;entryDy=0;" parent="1" source="RcwFCMAtQ21KHjXICten-32" target="RcwFCMAtQ21KHjXICten-32" edge="1">
          <mxGeometry relative="1" as="geometry">
            <Array as="points">
              <mxPoint x="1608" y="25" />
              <mxPoint x="1552" y="25" />
            </Array>
          </mxGeometry>
        </mxCell>
        <mxCell id="RcwFCMAtQ21KHjXICten-40" value="" style="endArrow=classic;html=1;rounded=0;entryX=0;entryY=0;entryDx=0;entryDy=0;" parent="1" target="RcwFCMAtQ21KHjXICten-28" edge="1">
          <mxGeometry width="50" height="50" relative="1" as="geometry">
            <mxPoint x="870" y="25" as="sourcePoint" />
            <mxPoint x="710" y="465" as="targetPoint" />
          </mxGeometry>
        </mxCell>
        <mxCell id="RcwFCMAtQ21KHjXICten-42" value="Start" style="ellipse;whiteSpace=wrap;html=1;aspect=fixed;rounded=0;" parent="1" vertex="1">
          <mxGeometry x="1100" y="705" width="80" height="80" as="geometry" />
        </mxCell>
        <mxCell id="RcwFCMAtQ21KHjXICten-43" style="edgeStyle=orthogonalEdgeStyle;rounded=0;orthogonalLoop=1;jettySize=auto;html=1;exitX=1;exitY=0;exitDx=0;exitDy=0;entryX=0;entryY=0;entryDx=0;entryDy=0;" parent="1" source="RcwFCMAtQ21KHjXICten-42" target="RcwFCMAtQ21KHjXICten-42" edge="1">
          <mxGeometry relative="1" as="geometry">
            <Array as="points">
              <mxPoint x="1168" y="685" />
              <mxPoint x="1112" y="685" />
            </Array>
          </mxGeometry>
        </mxCell>
        <mxCell id="RcwFCMAtQ21KHjXICten-44" value="" style="endArrow=classic;html=1;rounded=0;entryX=0;entryY=0;entryDx=0;entryDy=0;" parent="1" target="RcwFCMAtQ21KHjXICten-42" edge="1">
          <mxGeometry width="50" height="50" relative="1" as="geometry">
            <mxPoint x="1060" y="695" as="sourcePoint" />
            <mxPoint x="1450" y="695" as="targetPoint" />
          </mxGeometry>
        </mxCell>
        <mxCell id="RcwFCMAtQ21KHjXICten-45" value="&lt;div&gt;if(timer &amp;lt;= 0 || occupancy == 0){&lt;br&gt;&lt;span style=&quot;white-space: pre;&quot;&gt; &lt;/span&gt;digitalWrite(1, LOW);&lt;br&gt;}else{&lt;br&gt;&lt;span style=&quot;white-space: pre;&quot;&gt; &lt;/span&gt;digitalWrite(1, HIGH);&lt;br&gt;&lt;span style=&quot;white-space: pre;&quot;&gt; &lt;/span&gt;timer--;&lt;br&gt;&lt;/div&gt;&lt;div&gt;}&lt;/div&gt;" style="text;html=1;align=left;verticalAlign=middle;resizable=0;points=[];autosize=1;strokeColor=none;fillColor=none;rounded=0;" parent="1" vertex="1">
          <mxGeometry x="1090" y="785" width="190" height="100" as="geometry" />
        </mxCell>
        <mxCell id="RcwFCMAtQ21KHjXICten-46" value="" style="rounded=0;whiteSpace=wrap;html=1;fillColor=none;" parent="1" vertex="1">
          <mxGeometry x="1015" y="630" width="270" height="260" as="geometry" />
        </mxCell>
        <mxCell id="RcwFCMAtQ21KHjXICten-47" value="&lt;b&gt;&lt;u&gt;LEDSM&lt;/u&gt;&lt;/b&gt;" style="text;html=1;strokeColor=none;fillColor=none;align=center;verticalAlign=middle;whiteSpace=wrap;rounded=0;" parent="1" vertex="1">
          <mxGeometry x="1040" y="635" width="60" height="30" as="geometry" />
        </mxCell>
        <mxCell id="RcwFCMAtQ21KHjXICten-49" value="/ if(isMotion) timer = 50;" style="text;html=1;align=center;verticalAlign=middle;resizable=0;points=[];autosize=1;strokeColor=none;fillColor=none;rounded=0;" parent="1" vertex="1">
          <mxGeometry x="1075" y="658" width="150" height="30" as="geometry" />
        </mxCell>
        <mxCell id="RcwFCMAtQ21KHjXICten-50" value="&lt;b&gt;&lt;u&gt;NotifSM&lt;/u&gt;&lt;/b&gt;" style="text;html=1;strokeColor=none;fillColor=none;align=center;verticalAlign=middle;whiteSpace=wrap;rounded=0;" parent="1" vertex="1">
          <mxGeometry x="880" y="-90" width="60" height="30" as="geometry" />
        </mxCell>
        <mxCell id="RcwFCMAtQ21KHjXICten-51" style="edgeStyle=orthogonalEdgeStyle;rounded=0;orthogonalLoop=1;jettySize=auto;html=1;exitX=1;exitY=0;exitDx=0;exitDy=0;entryX=0;entryY=0;entryDx=0;entryDy=0;" parent="1" source="RcwFCMAtQ21KHjXICten-28" target="RcwFCMAtQ21KHjXICten-28" edge="1">
          <mxGeometry relative="1" as="geometry">
            <Array as="points">
              <mxPoint x="971" y="25" />
              <mxPoint x="915" y="25" />
            </Array>
          </mxGeometry>
        </mxCell>
        <mxCell id="RcwFCMAtQ21KHjXICten-52" value="Other" style="text;html=1;align=center;verticalAlign=middle;resizable=0;points=[];autosize=1;strokeColor=none;fillColor=none;rounded=0;" parent="1" vertex="1">
          <mxGeometry x="918" y="3" width="50" height="30" as="geometry" />
        </mxCell>
        <mxCell id="RcwFCMAtQ21KHjXICten-53" value="isNoise&lt;br&gt;/ i = 0;&lt;br&gt;LCD.clear();&lt;br&gt;LCD.display(&quot;Noise detected, press button to cancel);" style="text;html=1;align=center;verticalAlign=middle;resizable=0;points=[];autosize=1;strokeColor=none;fillColor=none;rounded=0;" parent="1" vertex="1">
          <mxGeometry x="980" y="18" width="310" height="70" as="geometry" />
        </mxCell>
        <mxCell id="RcwFCMAtQ21KHjXICten-54" value="!buttonPress &amp;amp;&amp;amp; i &amp;lt; 50" style="text;html=1;align=center;verticalAlign=middle;resizable=0;points=[];autosize=1;strokeColor=none;fillColor=none;rounded=0;" parent="1" vertex="1">
          <mxGeometry x="1260" y="-5" width="140" height="30" as="geometry" />
        </mxCell>
        <mxCell id="RcwFCMAtQ21KHjXICten-55" value="buttonPress/&lt;br&gt;i = 0;&lt;br&gt;isNoise = false;" style="text;html=1;align=center;verticalAlign=middle;resizable=0;points=[];autosize=1;strokeColor=none;fillColor=none;rounded=0;" parent="1" vertex="1">
          <mxGeometry x="975" y="105" width="110" height="60" as="geometry" />
        </mxCell>
        <mxCell id="RcwFCMAtQ21KHjXICten-56" value="!buttonPress &amp;amp;&amp;amp; i &amp;gt;= 50&lt;br&gt;/ i = 0;&lt;br&gt;ringBuzzer = false;" style="text;html=1;align=center;verticalAlign=middle;resizable=0;points=[];autosize=1;strokeColor=none;fillColor=none;rounded=0;" parent="1" vertex="1">
          <mxGeometry x="1370" y="30" width="150" height="60" as="geometry" />
        </mxCell>
        <mxCell id="RcwFCMAtQ21KHjXICten-57" value="i &amp;lt; 50" style="text;html=1;align=center;verticalAlign=middle;resizable=0;points=[];autosize=1;strokeColor=none;fillColor=none;rounded=0;" parent="1" vertex="1">
          <mxGeometry x="1555" y="-5" width="50" height="30" as="geometry" />
        </mxCell>
        <mxCell id="RcwFCMAtQ21KHjXICten-61" value="" style="edgeStyle=orthogonalEdgeStyle;rounded=0;orthogonalLoop=1;jettySize=auto;html=1;" parent="1" source="RcwFCMAtQ21KHjXICten-58" target="RcwFCMAtQ21KHjXICten-60" edge="1">
          <mxGeometry relative="1" as="geometry" />
        </mxCell>
        <mxCell id="RcwFCMAtQ21KHjXICten-58" value="Start" style="ellipse;whiteSpace=wrap;html=1;aspect=fixed;rounded=0;" parent="1" vertex="1">
          <mxGeometry x="1760" y="572" width="80" height="80" as="geometry" />
        </mxCell>
        <mxCell id="RcwFCMAtQ21KHjXICten-59" value="" style="endArrow=classic;html=1;rounded=0;entryX=0;entryY=0;entryDx=0;entryDy=0;" parent="1" target="RcwFCMAtQ21KHjXICten-58" edge="1">
          <mxGeometry width="50" height="50" relative="1" as="geometry">
            <mxPoint x="1740" y="562" as="sourcePoint" />
            <mxPoint x="1830" y="582" as="targetPoint" />
          </mxGeometry>
        </mxCell>
        <mxCell id="RcwFCMAtQ21KHjXICten-62" style="edgeStyle=orthogonalEdgeStyle;rounded=0;orthogonalLoop=1;jettySize=auto;html=1;exitX=0;exitY=1;exitDx=0;exitDy=0;entryX=1;entryY=1;entryDx=0;entryDy=0;" parent="1" source="RcwFCMAtQ21KHjXICten-60" target="RcwFCMAtQ21KHjXICten-58" edge="1">
          <mxGeometry relative="1" as="geometry" />
        </mxCell>
        <mxCell id="RcwFCMAtQ21KHjXICten-60" value="Start" style="ellipse;whiteSpace=wrap;html=1;aspect=fixed;rounded=0;" parent="1" vertex="1">
          <mxGeometry x="2160" y="572" width="80" height="80" as="geometry" />
        </mxCell>
        <mxCell id="RcwFCMAtQ21KHjXICten-63" style="edgeStyle=orthogonalEdgeStyle;rounded=0;orthogonalLoop=1;jettySize=auto;html=1;exitX=1;exitY=0;exitDx=0;exitDy=0;entryX=0.1;entryY=0.25;entryDx=0;entryDy=0;entryPerimeter=0;" parent="1" source="RcwFCMAtQ21KHjXICten-60" target="RcwFCMAtQ21KHjXICten-60" edge="1">
          <mxGeometry relative="1" as="geometry">
            <mxPoint x="2156" y="584" as="targetPoint" />
            <Array as="points">
              <mxPoint x="2218" y="552" />
              <mxPoint x="2158" y="552" />
            </Array>
          </mxGeometry>
        </mxCell>
        <mxCell id="RcwFCMAtQ21KHjXICten-64" style="edgeStyle=orthogonalEdgeStyle;rounded=0;orthogonalLoop=1;jettySize=auto;html=1;exitX=1;exitY=0;exitDx=0;exitDy=0;entryX=0;entryY=0;entryDx=0;entryDy=0;" parent="1" source="RcwFCMAtQ21KHjXICten-58" target="RcwFCMAtQ21KHjXICten-58" edge="1">
          <mxGeometry relative="1" as="geometry">
            <Array as="points">
              <mxPoint x="1828" y="552" />
              <mxPoint x="1772" y="552" />
            </Array>
          </mxGeometry>
        </mxCell>
        <mxCell id="RcwFCMAtQ21KHjXICten-66" value="isMaxOccu&lt;br&gt;/ LCD.clear();&lt;br&gt;LCD.display(&quot;Loud Noise Detected!);&lt;br&gt;i = 0;" style="text;html=1;align=center;verticalAlign=middle;resizable=0;points=[];autosize=1;strokeColor=none;fillColor=none;rounded=0;" parent="1" vertex="1">
          <mxGeometry x="1025" y="159" width="220" height="70" as="geometry" />
        </mxCell>
        <mxCell id="RcwFCMAtQ21KHjXICten-68" value="msgQ.empty() &amp;amp;&amp;amp; msgQRPi.empty()" style="text;html=1;align=center;verticalAlign=middle;resizable=0;points=[];autosize=1;strokeColor=none;fillColor=none;rounded=0;" parent="1" vertex="1">
          <mxGeometry x="1690" y="520" width="220" height="30" as="geometry" />
        </mxCell>
        <mxCell id="RcwFCMAtQ21KHjXICten-69" value="!msgQ.empty() || !msgQRPi.empty()" style="text;html=1;align=center;verticalAlign=middle;resizable=0;points=[];autosize=1;strokeColor=none;fillColor=none;rounded=0;" parent="1" vertex="1">
          <mxGeometry x="1895" y="577" width="210" height="30" as="geometry" />
        </mxCell>
        <mxCell id="RcwFCMAtQ21KHjXICten-70" value="msgQ.empty() &amp;amp;&amp;amp; msgQRPi.empty()&lt;br&gt;/&amp;nbsp;&lt;br&gt;if(occupancy &amp;gt;= MAX_OCCUPANCY){&lt;br&gt;&lt;span style=&quot;white-space: pre;&quot;&gt; &lt;/span&gt;isMaxOccu = true;&lt;br&gt;&lt;span style=&quot;white-space: pre;&quot;&gt; &lt;/span&gt;LCD.clear();&lt;br&gt;&lt;span style=&quot;white-space: pre;&quot;&gt; &lt;/span&gt;LCD.display(&quot;Max Occu Reached&quot;);&lt;br&gt;}else{&lt;br&gt;&lt;span style=&quot;white-space: pre;&quot;&gt; &lt;/span&gt;LCD.clear();&lt;br&gt;&lt;span style=&quot;white-space: pre;&quot;&gt; &lt;/span&gt;LCD.display(occupancy + &quot; in room&quot;);&lt;br&gt;}" style="text;html=1;align=left;verticalAlign=middle;resizable=0;points=[];autosize=1;strokeColor=none;fillColor=none;rounded=0;" parent="1" vertex="1">
          <mxGeometry x="1885" y="640" width="250" height="160" as="geometry" />
        </mxCell>
        <mxCell id="RcwFCMAtQ21KHjXICten-71" value="!msgQ.empty() || !msgQRPi.empty()" style="text;html=1;align=center;verticalAlign=middle;resizable=0;points=[];autosize=1;strokeColor=none;fillColor=none;rounded=0;" parent="1" vertex="1">
          <mxGeometry x="2095" y="520" width="210" height="30" as="geometry" />
        </mxCell>
        <mxCell id="RcwFCMAtQ21KHjXICten-72" value="if(msgQ.empty()){&lt;br&gt;&lt;span style=&quot;background-color: initial;&quot;&gt;&lt;span style=&quot;&quot;&gt; &lt;/span&gt;&lt;span style=&quot;white-space: pre;&quot;&gt; &lt;/span&gt;data = msgQ.dequeue();&lt;/span&gt;&lt;br&gt;&lt;div style=&quot;&quot;&gt;&lt;span style=&quot;white-space: pre;&quot;&gt; &lt;/span&gt;occupancy += data;&lt;br&gt;&lt;/div&gt;&lt;div style=&quot;&quot;&gt;}&lt;br&gt;if(msgQRPi.empty()){&lt;br&gt;&lt;div&gt;&lt;span style=&quot;white-space: pre;&quot;&gt; &lt;/span&gt;data = msgQ.dequeue();&lt;br&gt;&lt;span style=&quot;&quot;&gt; &lt;/span&gt;&lt;span style=&quot;background-color: initial;&quot;&gt;&lt;/span&gt;&lt;span style=&quot;white-space: pre;&quot;&gt; &lt;/span&gt;occupancy&amp;nbsp;+= data;&lt;span style=&quot;background-color: initial;&quot;&gt;&lt;br&gt;}&lt;br&gt;&lt;/span&gt;&lt;/div&gt;&lt;/div&gt;" style="text;html=1;align=left;verticalAlign=middle;resizable=0;points=[];autosize=1;strokeColor=none;fillColor=none;rounded=0;" parent="1" vertex="1">
          <mxGeometry x="2135" y="652" width="180" height="130" as="geometry" />
        </mxCell>
        <mxCell id="RcwFCMAtQ21KHjXICten-73" value="i &amp;gt;= 50" style="text;html=1;align=center;verticalAlign=middle;resizable=0;points=[];autosize=1;strokeColor=none;fillColor=none;rounded=0;" parent="1" vertex="1">
          <mxGeometry x="1090" y="245" width="60" height="30" as="geometry" />
        </mxCell>
        <mxCell id="RcwFCMAtQ21KHjXICten-74" value="ringBuzzer = !ringBuzzer;&lt;br&gt;if(ringBuzzer){&lt;br&gt;&lt;span style=&quot;white-space: pre;&quot;&gt;	&lt;/span&gt;tone(8, 500);&lt;br&gt;}&lt;br&gt;i++;" style="text;html=1;align=left;verticalAlign=middle;resizable=0;points=[];autosize=1;strokeColor=none;fillColor=none;rounded=0;" parent="1" vertex="1">
          <mxGeometry x="1625" y="45" width="160" height="90" as="geometry" />
        </mxCell>
        <mxCell id="RcwFCMAtQ21KHjXICten-76" value="i++;" style="text;html=1;align=center;verticalAlign=middle;resizable=0;points=[];autosize=1;strokeColor=none;fillColor=none;rounded=0;" parent="1" vertex="1">
          <mxGeometry x="1310" y="120" width="40" height="30" as="geometry" />
        </mxCell>
        <mxCell id="o839yOLEN_f2s1I2kFfj-5" value="&lt;b&gt;&lt;u&gt;OccupancySM&lt;/u&gt;&lt;/b&gt;" style="text;html=1;align=center;verticalAlign=middle;resizable=0;points=[];autosize=1;strokeColor=none;fillColor=none;" parent="1" vertex="1">
          <mxGeometry x="1685" y="460" width="110" height="30" as="geometry" />
        </mxCell>
        <mxCell id="o839yOLEN_f2s1I2kFfj-10" value="" style="edgeStyle=orthogonalEdgeStyle;rounded=0;orthogonalLoop=1;jettySize=auto;html=1;" parent="1" source="o839yOLEN_f2s1I2kFfj-6" target="o839yOLEN_f2s1I2kFfj-9" edge="1">
          <mxGeometry relative="1" as="geometry" />
        </mxCell>
        <mxCell id="YJO8ka9hiRt2IvNKQ23o-4" style="edgeStyle=orthogonalEdgeStyle;rounded=0;orthogonalLoop=1;jettySize=auto;html=1;exitX=0;exitY=0.5;exitDx=0;exitDy=0;" parent="1" source="o839yOLEN_f2s1I2kFfj-6" target="YJO8ka9hiRt2IvNKQ23o-3" edge="1">
          <mxGeometry relative="1" as="geometry" />
        </mxCell>
        <mxCell id="o839yOLEN_f2s1I2kFfj-6" value="" style="rounded=0;whiteSpace=wrap;html=1;fillColor=none;" parent="1" vertex="1">
          <mxGeometry x="1680" y="440" width="660" height="380" as="geometry" />
        </mxCell>
        <mxCell id="o839yOLEN_f2s1I2kFfj-11" style="edgeStyle=orthogonalEdgeStyle;rounded=0;orthogonalLoop=1;jettySize=auto;html=1;" parent="1" source="o839yOLEN_f2s1I2kFfj-9" target="o839yOLEN_f2s1I2kFfj-4" edge="1">
          <mxGeometry relative="1" as="geometry" />
        </mxCell>
        <mxCell id="o839yOLEN_f2s1I2kFfj-9" value="isMaxOccu" style="whiteSpace=wrap;html=1;fillColor=none;rounded=1;" parent="1" vertex="1">
          <mxGeometry x="1950" y="90" width="120" height="60" as="geometry" />
        </mxCell>
        <mxCell id="YJO8ka9hiRt2IvNKQ23o-5" style="edgeStyle=orthogonalEdgeStyle;rounded=0;orthogonalLoop=1;jettySize=auto;html=1;exitX=0;exitY=0.5;exitDx=0;exitDy=0;entryX=1;entryY=0.5;entryDx=0;entryDy=0;" parent="1" source="YJO8ka9hiRt2IvNKQ23o-3" target="RcwFCMAtQ21KHjXICten-46" edge="1">
          <mxGeometry relative="1" as="geometry" />
        </mxCell>
        <mxCell id="YJO8ka9hiRt2IvNKQ23o-3" value="occupancy" style="rounded=1;whiteSpace=wrap;html=1;" parent="1" vertex="1">
          <mxGeometry x="1440" y="610" width="87" height="40" as="geometry" />
        </mxCell>
        <mxCell id="S73jbB0KrbIs8h3n_-sC-1" value="Period: 500 ms" style="text;html=1;align=center;verticalAlign=middle;resizable=0;points=[];autosize=1;strokeColor=none;fillColor=none;" parent="1" vertex="1">
          <mxGeometry x="138" y="675" width="100" height="30" as="geometry" />
        </mxCell>
        <mxCell id="27bhIKVXgoMDS7MVKz2C-1" value="Period:&amp;nbsp; 500ms" style="text;html=1;align=center;verticalAlign=middle;resizable=0;points=[];autosize=1;strokeColor=none;fillColor=none;" vertex="1" parent="1">
          <mxGeometry x="880" y="-60" width="100" height="30" as="geometry" />
        </mxCell>
      </root>
    </mxGraphModel>
  </diagram>
  <diagram id="XSSz_S9T4clPS1xfpYX5" name="Schematics">
    <mxGraphModel dx="1680" dy="1686" grid="1" gridSize="10" guides="1" tooltips="1" connect="1" arrows="1" fold="1" page="1" pageScale="1" pageWidth="850" pageHeight="1100" math="0" shadow="0">
      <root>
        <mxCell id="0" />
        <mxCell id="1" parent="0" />
        <mxCell id="LE21tvHCQsPJbADU8Lb1-46" style="edgeStyle=orthogonalEdgeStyle;rounded=0;orthogonalLoop=1;jettySize=auto;html=1;exitX=1;exitY=0.75;exitDx=0;exitDy=0;entryX=0;entryY=0.5;entryDx=0;entryDy=0;entryPerimeter=0;endArrow=none;endFill=0;" parent="1" source="I7wPk8G5t5qnVO4KSN49-2" target="LE21tvHCQsPJbADU8Lb1-41" edge="1">
          <mxGeometry relative="1" as="geometry" />
        </mxCell>
        <mxCell id="LE21tvHCQsPJbADU8Lb1-66" style="edgeStyle=orthogonalEdgeStyle;rounded=0;orthogonalLoop=1;jettySize=auto;html=1;exitX=0.75;exitY=0;exitDx=0;exitDy=0;endArrow=none;endFill=0;" parent="1" source="I7wPk8G5t5qnVO4KSN49-2" edge="1">
          <mxGeometry relative="1" as="geometry">
            <mxPoint x="410" y="-200" as="targetPoint" />
            <Array as="points">
              <mxPoint x="410" y="-200" />
              <mxPoint x="410" y="-200" />
            </Array>
          </mxGeometry>
        </mxCell>
        <mxCell id="LE21tvHCQsPJbADU8Lb1-67" style="edgeStyle=orthogonalEdgeStyle;rounded=0;orthogonalLoop=1;jettySize=auto;html=1;exitX=1;exitY=0;exitDx=0;exitDy=0;endArrow=none;endFill=0;" parent="1" source="I7wPk8G5t5qnVO4KSN49-2" edge="1">
          <mxGeometry relative="1" as="geometry">
            <mxPoint x="500" y="-240" as="targetPoint" />
          </mxGeometry>
        </mxCell>
        <mxCell id="I7wPk8G5t5qnVO4KSN49-2" value="Arduino Uno" style="rounded=0;whiteSpace=wrap;html=1;" parent="1" vertex="1">
          <mxGeometry x="140" y="120" width="360" height="120" as="geometry" />
        </mxCell>
        <mxCell id="I7wPk8G5t5qnVO4KSN49-5" style="edgeStyle=orthogonalEdgeStyle;rounded=0;orthogonalLoop=1;jettySize=auto;html=1;exitX=0;exitY=0.5;exitDx=0;exitDy=0;entryX=1;entryY=0.5;entryDx=0;entryDy=0;" parent="1" source="I7wPk8G5t5qnVO4KSN49-4" target="I7wPk8G5t5qnVO4KSN49-2" edge="1">
          <mxGeometry relative="1" as="geometry" />
        </mxCell>
        <mxCell id="I7wPk8G5t5qnVO4KSN49-4" value="Raspberry Pi" style="rounded=0;whiteSpace=wrap;html=1;" parent="1" vertex="1">
          <mxGeometry x="630" y="120" width="180" height="120" as="geometry" />
        </mxCell>
        <mxCell id="I7wPk8G5t5qnVO4KSN49-6" value="USB Serial" style="text;html=1;align=center;verticalAlign=middle;resizable=0;points=[];autosize=1;strokeColor=none;fillColor=none;" parent="1" vertex="1">
          <mxGeometry x="530" y="158" width="80" height="30" as="geometry" />
        </mxCell>
        <mxCell id="LE21tvHCQsPJbADU8Lb1-2" value="" style="edgeStyle=orthogonalEdgeStyle;rounded=0;orthogonalLoop=1;jettySize=auto;html=1;entryX=0.75;entryY=1;entryDx=0;entryDy=0;" parent="1" source="LE21tvHCQsPJbADU8Lb1-1" target="I7wPk8G5t5qnVO4KSN49-2" edge="1">
          <mxGeometry relative="1" as="geometry" />
        </mxCell>
        <mxCell id="LE21tvHCQsPJbADU8Lb1-99" style="edgeStyle=orthogonalEdgeStyle;rounded=0;orthogonalLoop=1;jettySize=auto;html=1;exitX=0;exitY=1;exitDx=0;exitDy=0;endArrow=oval;endFill=1;" parent="1" source="LE21tvHCQsPJbADU8Lb1-1" edge="1">
          <mxGeometry relative="1" as="geometry">
            <mxPoint x="381.65517241379325" y="520" as="targetPoint" />
          </mxGeometry>
        </mxCell>
        <mxCell id="LE21tvHCQsPJbADU8Lb1-100" style="edgeStyle=orthogonalEdgeStyle;rounded=0;orthogonalLoop=1;jettySize=auto;html=1;exitX=1;exitY=1;exitDx=0;exitDy=0;endArrow=oval;endFill=1;" parent="1" source="LE21tvHCQsPJbADU8Lb1-1" edge="1">
          <mxGeometry relative="1" as="geometry">
            <mxPoint x="438.2068965517242" y="560" as="targetPoint" />
          </mxGeometry>
        </mxCell>
        <mxCell id="LE21tvHCQsPJbADU8Lb1-1" value="Microphone" style="ellipse;whiteSpace=wrap;html=1;aspect=fixed;" parent="1" vertex="1">
          <mxGeometry x="370" y="393" width="80" height="80" as="geometry" />
        </mxCell>
        <mxCell id="LE21tvHCQsPJbADU8Lb1-4" style="edgeStyle=orthogonalEdgeStyle;rounded=0;orthogonalLoop=1;jettySize=auto;html=1;strokeColor=default;entryX=0.75;entryY=0;entryDx=0;entryDy=0;" parent="1" source="I7wPk8G5t5qnVO4KSN49-2" target="LE21tvHCQsPJbADU8Lb1-3" edge="1">
          <mxGeometry relative="1" as="geometry" />
        </mxCell>
        <mxCell id="LE21tvHCQsPJbADU8Lb1-5" style="edgeStyle=orthogonalEdgeStyle;rounded=0;orthogonalLoop=1;jettySize=auto;html=1;exitX=0.25;exitY=1;exitDx=0;exitDy=0;entryX=0.25;entryY=0;entryDx=0;entryDy=0;" parent="1" source="I7wPk8G5t5qnVO4KSN49-2" target="LE21tvHCQsPJbADU8Lb1-3" edge="1">
          <mxGeometry relative="1" as="geometry" />
        </mxCell>
        <mxCell id="LE21tvHCQsPJbADU8Lb1-97" style="edgeStyle=orthogonalEdgeStyle;rounded=0;orthogonalLoop=1;jettySize=auto;html=1;exitX=0.25;exitY=1;exitDx=0;exitDy=0;endArrow=oval;endFill=1;" parent="1" source="LE21tvHCQsPJbADU8Lb1-3" edge="1">
          <mxGeometry relative="1" as="geometry">
            <mxPoint x="246" y="520" as="targetPoint" />
          </mxGeometry>
        </mxCell>
        <mxCell id="LE21tvHCQsPJbADU8Lb1-98" style="edgeStyle=orthogonalEdgeStyle;rounded=0;orthogonalLoop=1;jettySize=auto;html=1;exitX=0.75;exitY=1;exitDx=0;exitDy=0;endArrow=oval;endFill=1;" parent="1" source="LE21tvHCQsPJbADU8Lb1-3" edge="1">
          <mxGeometry relative="1" as="geometry">
            <mxPoint x="305.7931034482758" y="560" as="targetPoint" />
          </mxGeometry>
        </mxCell>
        <mxCell id="LE21tvHCQsPJbADU8Lb1-3" value="LCD Display" style="rounded=1;whiteSpace=wrap;html=1;" parent="1" vertex="1">
          <mxGeometry x="216" y="401" width="120" height="60" as="geometry" />
        </mxCell>
        <mxCell id="LE21tvHCQsPJbADU8Lb1-7" value="A5" style="text;html=1;align=center;verticalAlign=middle;resizable=0;points=[];autosize=1;strokeColor=none;fillColor=none;" parent="1" vertex="1">
          <mxGeometry x="300" y="220" width="40" height="30" as="geometry" />
        </mxCell>
        <mxCell id="LE21tvHCQsPJbADU8Lb1-8" value="7" style="text;html=1;align=center;verticalAlign=middle;resizable=0;points=[];autosize=1;strokeColor=none;fillColor=none;" parent="1" vertex="1">
          <mxGeometry x="395" y="220" width="30" height="30" as="geometry" />
        </mxCell>
        <mxCell id="LE21tvHCQsPJbADU8Lb1-9" value="SCL" style="text;html=1;align=center;verticalAlign=middle;resizable=0;points=[];autosize=1;strokeColor=none;fillColor=none;" parent="1" vertex="1">
          <mxGeometry x="283" y="394" width="50" height="30" as="geometry" />
        </mxCell>
        <mxCell id="LE21tvHCQsPJbADU8Lb1-10" value="A4" style="text;html=1;align=center;verticalAlign=middle;resizable=0;points=[];autosize=1;strokeColor=none;fillColor=none;" parent="1" vertex="1">
          <mxGeometry x="210" y="220" width="40" height="30" as="geometry" />
        </mxCell>
        <mxCell id="LE21tvHCQsPJbADU8Lb1-11" value="SDA" style="text;html=1;align=center;verticalAlign=middle;resizable=0;points=[];autosize=1;strokeColor=none;fillColor=none;" parent="1" vertex="1">
          <mxGeometry x="219" y="393" width="50" height="30" as="geometry" />
        </mxCell>
        <mxCell id="LE21tvHCQsPJbADU8Lb1-12" value="OUT" style="text;html=1;align=center;verticalAlign=middle;resizable=0;points=[];autosize=1;strokeColor=none;fillColor=none;" parent="1" vertex="1">
          <mxGeometry x="384" y="387" width="50" height="30" as="geometry" />
        </mxCell>
        <mxCell id="LE21tvHCQsPJbADU8Lb1-79" style="edgeStyle=orthogonalEdgeStyle;rounded=0;orthogonalLoop=1;jettySize=auto;html=1;exitX=0.75;exitY=0;exitDx=0;exitDy=0;endArrow=oval;endFill=1;" parent="1" source="LE21tvHCQsPJbADU8Lb1-13" edge="1">
          <mxGeometry relative="1" as="geometry">
            <mxPoint x="141.18181818181802" y="-240" as="targetPoint" />
          </mxGeometry>
        </mxCell>
        <mxCell id="LE21tvHCQsPJbADU8Lb1-80" style="edgeStyle=orthogonalEdgeStyle;rounded=0;orthogonalLoop=1;jettySize=auto;html=1;exitX=0.25;exitY=0;exitDx=0;exitDy=0;endArrow=oval;endFill=1;" parent="1" source="LE21tvHCQsPJbADU8Lb1-13" edge="1">
          <mxGeometry relative="1" as="geometry">
            <mxPoint x="116.63636363636351" y="-200" as="targetPoint" />
          </mxGeometry>
        </mxCell>
        <mxCell id="LE21tvHCQsPJbADU8Lb1-13" value="Break&lt;br&gt;Beam&lt;br&gt;Emit&lt;br&gt;1" style="rounded=0;whiteSpace=wrap;html=1;" parent="1" vertex="1">
          <mxGeometry x="104" y="-70" width="50" height="100" as="geometry" />
        </mxCell>
        <mxCell id="LE21tvHCQsPJbADU8Lb1-27" style="edgeStyle=orthogonalEdgeStyle;rounded=0;orthogonalLoop=1;jettySize=auto;html=1;exitX=0.5;exitY=1;exitDx=0;exitDy=0;entryX=1;entryY=0.25;entryDx=0;entryDy=0;" parent="1" source="LE21tvHCQsPJbADU8Lb1-19" target="I7wPk8G5t5qnVO4KSN49-2" edge="1">
          <mxGeometry relative="1" as="geometry" />
        </mxCell>
        <mxCell id="LE21tvHCQsPJbADU8Lb1-71" style="edgeStyle=orthogonalEdgeStyle;rounded=0;orthogonalLoop=1;jettySize=auto;html=1;exitX=0;exitY=0;exitDx=0;exitDy=0;endArrow=oval;endFill=1;" parent="1" source="LE21tvHCQsPJbADU8Lb1-19" edge="1">
          <mxGeometry relative="1" as="geometry">
            <mxPoint x="500" y="-38.454545454545496" as="targetPoint" />
          </mxGeometry>
        </mxCell>
        <mxCell id="LE21tvHCQsPJbADU8Lb1-72" style="edgeStyle=orthogonalEdgeStyle;rounded=0;orthogonalLoop=1;jettySize=auto;html=1;exitX=0;exitY=1;exitDx=0;exitDy=0;endArrow=oval;endFill=1;" parent="1" source="LE21tvHCQsPJbADU8Lb1-19" edge="1">
          <mxGeometry relative="1" as="geometry">
            <mxPoint x="410" y="17.909090909090764" as="targetPoint" />
          </mxGeometry>
        </mxCell>
        <mxCell id="LE21tvHCQsPJbADU8Lb1-19" value="PIR&lt;br&gt;Motion&lt;br&gt;Sensor" style="ellipse;whiteSpace=wrap;html=1;aspect=fixed;" parent="1" vertex="1">
          <mxGeometry x="530" y="-50" width="80" height="80" as="geometry" />
        </mxCell>
        <mxCell id="LE21tvHCQsPJbADU8Lb1-101" style="edgeStyle=orthogonalEdgeStyle;rounded=0;orthogonalLoop=1;jettySize=auto;html=1;exitX=0.5;exitY=1;exitDx=0;exitDy=0;endArrow=oval;endFill=1;" parent="1" source="LE21tvHCQsPJbADU8Lb1-20" edge="1">
          <mxGeometry relative="1" as="geometry">
            <mxPoint x="570.1052631578948" y="560" as="targetPoint" />
          </mxGeometry>
        </mxCell>
        <mxCell id="LE21tvHCQsPJbADU8Lb1-20" value="LED" style="ellipse;whiteSpace=wrap;html=1;aspect=fixed;" parent="1" vertex="1">
          <mxGeometry x="530" y="394" width="80" height="80" as="geometry" />
        </mxCell>
        <mxCell id="LE21tvHCQsPJbADU8Lb1-24" style="edgeStyle=orthogonalEdgeStyle;rounded=0;orthogonalLoop=1;jettySize=auto;html=1;exitX=1;exitY=0.5;exitDx=0;exitDy=0;entryX=0;entryY=0.25;entryDx=0;entryDy=0;" parent="1" source="LE21tvHCQsPJbADU8Lb1-21" target="I7wPk8G5t5qnVO4KSN49-2" edge="1">
          <mxGeometry relative="1" as="geometry" />
        </mxCell>
        <mxCell id="LE21tvHCQsPJbADU8Lb1-87" style="edgeStyle=orthogonalEdgeStyle;rounded=0;orthogonalLoop=1;jettySize=auto;html=1;exitX=0;exitY=1;exitDx=0;exitDy=0;endArrow=oval;endFill=1;" parent="1" source="LE21tvHCQsPJbADU8Lb1-21" edge="1">
          <mxGeometry relative="1" as="geometry">
            <mxPoint x="-120" y="158.16666666666674" as="targetPoint" />
          </mxGeometry>
        </mxCell>
        <mxCell id="cgPwYM5HjvHdqJIhgstm-3" style="edgeStyle=orthogonalEdgeStyle;rounded=0;orthogonalLoop=1;jettySize=auto;html=1;exitX=0;exitY=0;exitDx=0;exitDy=0;entryX=1;entryY=0.5;entryDx=0;entryDy=0;entryPerimeter=0;endArrow=none;endFill=0;" edge="1" parent="1" source="LE21tvHCQsPJbADU8Lb1-21" target="cgPwYM5HjvHdqJIhgstm-1">
          <mxGeometry relative="1" as="geometry" />
        </mxCell>
        <mxCell id="LE21tvHCQsPJbADU8Lb1-21" value="Button" style="ellipse;whiteSpace=wrap;html=1;aspect=fixed;" parent="1" vertex="1">
          <mxGeometry x="-40" y="90" width="80" height="80" as="geometry" />
        </mxCell>
        <mxCell id="LE21tvHCQsPJbADU8Lb1-23" style="edgeStyle=orthogonalEdgeStyle;rounded=0;orthogonalLoop=1;jettySize=auto;html=1;exitX=1;exitY=0.5;exitDx=0;exitDy=0;entryX=0;entryY=0.75;entryDx=0;entryDy=0;" parent="1" source="LE21tvHCQsPJbADU8Lb1-22" target="I7wPk8G5t5qnVO4KSN49-2" edge="1">
          <mxGeometry relative="1" as="geometry" />
        </mxCell>
        <mxCell id="LE21tvHCQsPJbADU8Lb1-92" style="edgeStyle=orthogonalEdgeStyle;rounded=0;orthogonalLoop=1;jettySize=auto;html=1;exitX=0;exitY=0;exitDx=0;exitDy=0;endArrow=oval;endFill=1;" parent="1" source="LE21tvHCQsPJbADU8Lb1-22" edge="1">
          <mxGeometry relative="1" as="geometry">
            <mxPoint x="-160" y="206.91666666666674" as="targetPoint" />
          </mxGeometry>
        </mxCell>
        <mxCell id="LE21tvHCQsPJbADU8Lb1-93" style="edgeStyle=orthogonalEdgeStyle;rounded=0;orthogonalLoop=1;jettySize=auto;html=1;exitX=0;exitY=1;exitDx=0;exitDy=0;endArrow=oval;endFill=1;" parent="1" source="LE21tvHCQsPJbADU8Lb1-22" edge="1">
          <mxGeometry relative="1" as="geometry">
            <mxPoint x="-120" y="263.16666666666674" as="targetPoint" />
          </mxGeometry>
        </mxCell>
        <mxCell id="LE21tvHCQsPJbADU8Lb1-22" value="Buzzer" style="ellipse;whiteSpace=wrap;html=1;aspect=fixed;" parent="1" vertex="1">
          <mxGeometry x="-40" y="195" width="80" height="80" as="geometry" />
        </mxCell>
        <mxCell id="LE21tvHCQsPJbADU8Lb1-29" value="+&amp;nbsp; &amp;nbsp; &amp;nbsp; -" style="text;html=1;align=center;verticalAlign=middle;resizable=0;points=[];autosize=1;strokeColor=none;fillColor=none;" parent="1" vertex="1">
          <mxGeometry x="104" y="-80" width="50" height="30" as="geometry" />
        </mxCell>
        <mxCell id="LE21tvHCQsPJbADU8Lb1-40" style="edgeStyle=orthogonalEdgeStyle;rounded=0;orthogonalLoop=1;jettySize=auto;html=1;exitX=0.5;exitY=1;exitDx=0;exitDy=0;entryX=0.25;entryY=0;entryDx=0;entryDy=0;" parent="1" source="LE21tvHCQsPJbADU8Lb1-30" target="I7wPk8G5t5qnVO4KSN49-2" edge="1">
          <mxGeometry relative="1" as="geometry">
            <mxPoint x="190" y="100" as="targetPoint" />
          </mxGeometry>
        </mxCell>
        <mxCell id="LE21tvHCQsPJbADU8Lb1-77" style="edgeStyle=orthogonalEdgeStyle;rounded=0;orthogonalLoop=1;jettySize=auto;html=1;exitX=0.75;exitY=0;exitDx=0;exitDy=0;endArrow=oval;endFill=1;" parent="1" source="LE21tvHCQsPJbADU8Lb1-30" edge="1">
          <mxGeometry relative="1" as="geometry">
            <mxPoint x="201.18181818181802" y="-240" as="targetPoint" />
          </mxGeometry>
        </mxCell>
        <mxCell id="LE21tvHCQsPJbADU8Lb1-78" style="edgeStyle=orthogonalEdgeStyle;rounded=0;orthogonalLoop=1;jettySize=auto;html=1;exitX=0.25;exitY=0;exitDx=0;exitDy=0;endArrow=oval;endFill=1;" parent="1" source="LE21tvHCQsPJbADU8Lb1-30" edge="1">
          <mxGeometry relative="1" as="geometry">
            <mxPoint x="176.6363636363635" y="-200" as="targetPoint" />
          </mxGeometry>
        </mxCell>
        <mxCell id="LE21tvHCQsPJbADU8Lb1-30" value="Break&lt;br&gt;Beam&lt;br&gt;Receive&lt;br&gt;1" style="rounded=0;whiteSpace=wrap;html=1;" parent="1" vertex="1">
          <mxGeometry x="164" y="-70" width="50" height="100" as="geometry" />
        </mxCell>
        <mxCell id="LE21tvHCQsPJbADU8Lb1-31" value="+&amp;nbsp; &amp;nbsp; &amp;nbsp; -" style="text;html=1;align=center;verticalAlign=middle;resizable=0;points=[];autosize=1;strokeColor=none;fillColor=none;" parent="1" vertex="1">
          <mxGeometry x="164" y="-80" width="50" height="30" as="geometry" />
        </mxCell>
        <mxCell id="LE21tvHCQsPJbADU8Lb1-32" value="Output" style="text;html=1;align=center;verticalAlign=middle;resizable=0;points=[];autosize=1;strokeColor=none;fillColor=none;" parent="1" vertex="1">
          <mxGeometry x="159" y="8" width="60" height="30" as="geometry" />
        </mxCell>
        <mxCell id="LE21tvHCQsPJbADU8Lb1-76" style="edgeStyle=orthogonalEdgeStyle;rounded=0;orthogonalLoop=1;jettySize=auto;html=1;exitX=0.25;exitY=0;exitDx=0;exitDy=0;endArrow=oval;endFill=1;" parent="1" source="LE21tvHCQsPJbADU8Lb1-33" edge="1">
          <mxGeometry relative="1" as="geometry">
            <mxPoint x="286.6363636363635" y="-200" as="targetPoint" />
          </mxGeometry>
        </mxCell>
        <mxCell id="LE21tvHCQsPJbADU8Lb1-81" style="edgeStyle=orthogonalEdgeStyle;rounded=0;orthogonalLoop=1;jettySize=auto;html=1;exitX=0.75;exitY=0;exitDx=0;exitDy=0;endArrow=oval;endFill=1;" parent="1" source="LE21tvHCQsPJbADU8Lb1-33" edge="1">
          <mxGeometry relative="1" as="geometry">
            <mxPoint x="311.2972972972973" y="-240" as="targetPoint" />
          </mxGeometry>
        </mxCell>
        <mxCell id="LE21tvHCQsPJbADU8Lb1-33" value="Break&lt;br&gt;Beam&lt;br&gt;Emit&lt;br&gt;2" style="rounded=0;whiteSpace=wrap;html=1;" parent="1" vertex="1">
          <mxGeometry x="274" y="-70" width="50" height="100" as="geometry" />
        </mxCell>
        <mxCell id="LE21tvHCQsPJbADU8Lb1-34" value="+&amp;nbsp; &amp;nbsp; &amp;nbsp; -" style="text;html=1;align=center;verticalAlign=middle;resizable=0;points=[];autosize=1;strokeColor=none;fillColor=none;" parent="1" vertex="1">
          <mxGeometry x="274" y="-80" width="50" height="30" as="geometry" />
        </mxCell>
        <mxCell id="LE21tvHCQsPJbADU8Lb1-65" style="edgeStyle=orthogonalEdgeStyle;rounded=0;orthogonalLoop=1;jettySize=auto;html=1;entryX=0.5;entryY=0;entryDx=0;entryDy=0;" parent="1" source="LE21tvHCQsPJbADU8Lb1-35" target="I7wPk8G5t5qnVO4KSN49-2" edge="1">
          <mxGeometry relative="1" as="geometry" />
        </mxCell>
        <mxCell id="LE21tvHCQsPJbADU8Lb1-73" style="edgeStyle=orthogonalEdgeStyle;rounded=0;orthogonalLoop=1;jettySize=auto;html=1;exitX=0.75;exitY=0;exitDx=0;exitDy=0;endArrow=oval;endFill=1;" parent="1" source="LE21tvHCQsPJbADU8Lb1-35" edge="1">
          <mxGeometry relative="1" as="geometry">
            <mxPoint x="371.181818181818" y="-240" as="targetPoint" />
          </mxGeometry>
        </mxCell>
        <mxCell id="LE21tvHCQsPJbADU8Lb1-74" style="edgeStyle=orthogonalEdgeStyle;rounded=0;orthogonalLoop=1;jettySize=auto;html=1;exitX=0.25;exitY=0;exitDx=0;exitDy=0;endArrow=oval;endFill=1;" parent="1" source="LE21tvHCQsPJbADU8Lb1-35" edge="1">
          <mxGeometry relative="1" as="geometry">
            <mxPoint x="346.6363636363635" y="-200" as="targetPoint" />
          </mxGeometry>
        </mxCell>
        <mxCell id="LE21tvHCQsPJbADU8Lb1-35" value="Break&lt;br&gt;Beam&lt;br&gt;Receive&lt;br&gt;2" style="rounded=0;whiteSpace=wrap;html=1;" parent="1" vertex="1">
          <mxGeometry x="334" y="-70" width="50" height="100" as="geometry" />
        </mxCell>
        <mxCell id="LE21tvHCQsPJbADU8Lb1-36" value="+&amp;nbsp; &amp;nbsp; &amp;nbsp; -" style="text;html=1;align=center;verticalAlign=middle;resizable=0;points=[];autosize=1;strokeColor=none;fillColor=none;" parent="1" vertex="1">
          <mxGeometry x="334" y="-80" width="50" height="30" as="geometry" />
        </mxCell>
        <mxCell id="LE21tvHCQsPJbADU8Lb1-37" value="Output" style="text;html=1;align=center;verticalAlign=middle;resizable=0;points=[];autosize=1;strokeColor=none;fillColor=none;" parent="1" vertex="1">
          <mxGeometry x="329" y="-1" width="60" height="30" as="geometry" />
        </mxCell>
        <mxCell id="LE21tvHCQsPJbADU8Lb1-48" style="edgeStyle=orthogonalEdgeStyle;rounded=0;orthogonalLoop=1;jettySize=auto;html=1;exitX=1;exitY=0.5;exitDx=0;exitDy=0;exitPerimeter=0;endArrow=classic;endFill=1;" parent="1" source="LE21tvHCQsPJbADU8Lb1-41" target="LE21tvHCQsPJbADU8Lb1-20" edge="1">
          <mxGeometry relative="1" as="geometry" />
        </mxCell>
        <mxCell id="LE21tvHCQsPJbADU8Lb1-41" value="" style="pointerEvents=1;verticalLabelPosition=bottom;shadow=0;dashed=0;align=center;html=1;verticalAlign=top;shape=mxgraph.electrical.resistors.resistor_2;rotation=90;" parent="1" vertex="1">
          <mxGeometry x="520" y="300" width="100" height="20" as="geometry" />
        </mxCell>
        <mxCell id="LE21tvHCQsPJbADU8Lb1-50" value="9" style="text;html=1;align=center;verticalAlign=middle;resizable=0;points=[];autosize=1;strokeColor=none;fillColor=none;" parent="1" vertex="1">
          <mxGeometry x="480" y="195" width="30" height="30" as="geometry" />
        </mxCell>
        <mxCell id="LE21tvHCQsPJbADU8Lb1-51" value="11" style="text;html=1;align=center;verticalAlign=middle;resizable=0;points=[];autosize=1;strokeColor=none;fillColor=none;" parent="1" vertex="1">
          <mxGeometry x="210" y="110" width="40" height="30" as="geometry" />
        </mxCell>
        <mxCell id="LE21tvHCQsPJbADU8Lb1-52" value="12" style="text;html=1;align=center;verticalAlign=middle;resizable=0;points=[];autosize=1;strokeColor=none;fillColor=none;" parent="1" vertex="1">
          <mxGeometry x="300" y="110" width="40" height="30" as="geometry" />
        </mxCell>
        <mxCell id="LE21tvHCQsPJbADU8Lb1-56" value="10" style="text;html=1;align=center;verticalAlign=middle;resizable=0;points=[];autosize=1;strokeColor=none;fillColor=none;" parent="1" vertex="1">
          <mxGeometry x="473" y="137" width="40" height="30" as="geometry" />
        </mxCell>
        <mxCell id="LE21tvHCQsPJbADU8Lb1-58" value="" style="endArrow=none;html=1;rounded=0;" parent="1" edge="1">
          <mxGeometry width="50" height="50" relative="1" as="geometry">
            <mxPoint x="-160" y="-240" as="sourcePoint" />
            <mxPoint x="500" y="-240" as="targetPoint" />
          </mxGeometry>
        </mxCell>
        <mxCell id="LE21tvHCQsPJbADU8Lb1-59" value="" style="endArrow=none;html=1;rounded=0;" parent="1" edge="1">
          <mxGeometry width="50" height="50" relative="1" as="geometry">
            <mxPoint x="-120" y="-200" as="sourcePoint" />
            <mxPoint x="410" y="-200" as="targetPoint" />
          </mxGeometry>
        </mxCell>
        <mxCell id="LE21tvHCQsPJbADU8Lb1-60" value="" style="endArrow=none;html=1;rounded=0;" parent="1" edge="1">
          <mxGeometry width="50" height="50" relative="1" as="geometry">
            <mxPoint x="-160" y="-240" as="sourcePoint" />
            <mxPoint x="-160" y="561.3333333333334" as="targetPoint" />
          </mxGeometry>
        </mxCell>
        <mxCell id="LE21tvHCQsPJbADU8Lb1-61" value="" style="endArrow=none;html=1;rounded=0;" parent="1" edge="1">
          <mxGeometry width="50" height="50" relative="1" as="geometry">
            <mxPoint x="-120" y="522.5" as="sourcePoint" />
            <mxPoint x="-120" y="-200" as="targetPoint" />
          </mxGeometry>
        </mxCell>
        <mxCell id="LE21tvHCQsPJbADU8Lb1-62" value="" style="endArrow=none;html=1;rounded=0;" parent="1" edge="1">
          <mxGeometry width="50" height="50" relative="1" as="geometry">
            <mxPoint x="-120" y="520" as="sourcePoint" />
            <mxPoint x="730" y="520" as="targetPoint" />
          </mxGeometry>
        </mxCell>
        <mxCell id="LE21tvHCQsPJbADU8Lb1-63" value="" style="endArrow=none;html=1;rounded=0;" parent="1" edge="1">
          <mxGeometry width="50" height="50" relative="1" as="geometry">
            <mxPoint x="-160" y="560" as="sourcePoint" />
            <mxPoint x="730" y="560" as="targetPoint" />
          </mxGeometry>
        </mxCell>
        <mxCell id="LE21tvHCQsPJbADU8Lb1-68" value="GND" style="text;html=1;align=center;verticalAlign=middle;resizable=0;points=[];autosize=1;strokeColor=none;fillColor=none;" parent="1" vertex="1">
          <mxGeometry x="460" y="110" width="50" height="30" as="geometry" />
        </mxCell>
        <mxCell id="LE21tvHCQsPJbADU8Lb1-69" value="5V" style="text;html=1;align=center;verticalAlign=middle;resizable=0;points=[];autosize=1;strokeColor=none;fillColor=none;" parent="1" vertex="1">
          <mxGeometry x="390" y="110" width="40" height="30" as="geometry" />
        </mxCell>
        <mxCell id="LE21tvHCQsPJbADU8Lb1-82" value="-" style="text;html=1;align=center;verticalAlign=middle;resizable=0;points=[];autosize=1;strokeColor=none;fillColor=none;" parent="1" vertex="1">
          <mxGeometry x="540" y="-50" width="30" height="30" as="geometry" />
        </mxCell>
        <mxCell id="LE21tvHCQsPJbADU8Lb1-83" value="+" style="text;html=1;align=center;verticalAlign=middle;resizable=0;points=[];autosize=1;strokeColor=none;fillColor=none;" parent="1" vertex="1">
          <mxGeometry x="540" width="30" height="30" as="geometry" />
        </mxCell>
        <mxCell id="LE21tvHCQsPJbADU8Lb1-85" value="+" style="text;html=1;align=center;verticalAlign=middle;resizable=0;points=[];autosize=1;strokeColor=none;fillColor=none;" parent="1" vertex="1">
          <mxGeometry x="-30" y="140" width="30" height="30" as="geometry" />
        </mxCell>
        <mxCell id="LE21tvHCQsPJbADU8Lb1-89" value="-" style="text;html=1;align=center;verticalAlign=middle;resizable=0;points=[];autosize=1;strokeColor=none;fillColor=none;" parent="1" vertex="1">
          <mxGeometry x="-30" y="87" width="30" height="30" as="geometry" />
        </mxCell>
        <mxCell id="LE21tvHCQsPJbADU8Lb1-90" value="+" style="text;html=1;align=center;verticalAlign=middle;resizable=0;points=[];autosize=1;strokeColor=none;fillColor=none;" parent="1" vertex="1">
          <mxGeometry x="-30" y="245" width="30" height="30" as="geometry" />
        </mxCell>
        <mxCell id="LE21tvHCQsPJbADU8Lb1-91" value="-" style="text;html=1;align=center;verticalAlign=middle;resizable=0;points=[];autosize=1;strokeColor=none;fillColor=none;" parent="1" vertex="1">
          <mxGeometry x="-30" y="190" width="30" height="30" as="geometry" />
        </mxCell>
        <mxCell id="LE21tvHCQsPJbADU8Lb1-94" value="VCC" style="text;html=1;align=center;verticalAlign=middle;resizable=0;points=[];autosize=1;strokeColor=none;fillColor=none;" parent="1" vertex="1">
          <mxGeometry x="219" y="439" width="50" height="30" as="geometry" />
        </mxCell>
        <mxCell id="LE21tvHCQsPJbADU8Lb1-95" value="GND" style="text;html=1;align=center;verticalAlign=middle;resizable=0;points=[];autosize=1;strokeColor=none;fillColor=none;" parent="1" vertex="1">
          <mxGeometry x="283" y="439" width="50" height="30" as="geometry" />
        </mxCell>
        <mxCell id="LE21tvHCQsPJbADU8Lb1-102" value="VCC" style="text;html=1;align=center;verticalAlign=middle;resizable=0;points=[];autosize=1;strokeColor=none;fillColor=none;" parent="1" vertex="1">
          <mxGeometry x="365" y="437" width="50" height="30" as="geometry" />
        </mxCell>
        <mxCell id="LE21tvHCQsPJbADU8Lb1-103" value="GND" style="text;html=1;align=center;verticalAlign=middle;resizable=0;points=[];autosize=1;strokeColor=none;fillColor=none;" parent="1" vertex="1">
          <mxGeometry x="403" y="437" width="50" height="30" as="geometry" />
        </mxCell>
        <mxCell id="LE21tvHCQsPJbADU8Lb1-104" value="+" style="text;html=1;align=center;verticalAlign=middle;resizable=0;points=[];autosize=1;strokeColor=none;fillColor=none;" parent="1" vertex="1">
          <mxGeometry x="554" y="387" width="30" height="30" as="geometry" />
        </mxCell>
        <mxCell id="LE21tvHCQsPJbADU8Lb1-105" value="-" style="text;html=1;align=center;verticalAlign=middle;resizable=0;points=[];autosize=1;strokeColor=none;fillColor=none;" parent="1" vertex="1">
          <mxGeometry x="554" y="450" width="30" height="30" as="geometry" />
        </mxCell>
        <mxCell id="cgPwYM5HjvHdqJIhgstm-4" style="edgeStyle=orthogonalEdgeStyle;rounded=0;orthogonalLoop=1;jettySize=auto;html=1;exitX=0;exitY=0.5;exitDx=0;exitDy=0;exitPerimeter=0;endArrow=oval;endFill=1;" edge="1" parent="1" source="cgPwYM5HjvHdqJIhgstm-1">
          <mxGeometry relative="1" as="geometry">
            <mxPoint x="-160" y="101.82608695652198" as="targetPoint" />
          </mxGeometry>
        </mxCell>
        <mxCell id="cgPwYM5HjvHdqJIhgstm-1" value="" style="pointerEvents=1;verticalLabelPosition=bottom;shadow=0;dashed=0;align=center;html=1;verticalAlign=top;shape=mxgraph.electrical.resistors.resistor_2;" vertex="1" parent="1">
          <mxGeometry x="-150" y="92" width="100" height="20" as="geometry" />
        </mxCell>
      </root>
    </mxGraphModel>
  </diagram>
</mxfile>
